<mxfile host="app.diagrams.net" modified="2023-02-13T03:53:44.309Z" agent="5.0 (X11)" etag="8WKuak6pPT03hcNMI5o0" version="20.8.18" type="github">
  <diagram name="Page-1" id="vJXkmhZ6JJTsVAbimUCU">
    <mxGraphModel dx="1144" dy="647" grid="1" gridSize="10" guides="1" tooltips="1" connect="1" arrows="1" fold="1" page="1" pageScale="1" pageWidth="850" pageHeight="1100" math="0" shadow="0">
      <root>
        <mxCell id="0" />
        <mxCell id="1" parent="0" />
        <mxCell id="OhHFQgeIbm5aqrotHhMA-1" value="Admin" style="swimlane;horizontal=0;whiteSpace=wrap;html=1;" vertex="1" parent="1">
          <mxGeometry x="40" y="130" width="910" height="160" as="geometry" />
        </mxCell>
        <mxCell id="OhHFQgeIbm5aqrotHhMA-2" value="Choose  User page " style="shape=ellipse;html=1;fillColor=strokeColor;strokeWidth=2;verticalLabelPosition=bottom;verticalAlignment=top;perimeter=ellipsePerimeter;" vertex="1" parent="OhHFQgeIbm5aqrotHhMA-1">
          <mxGeometry x="80" y="70" width="40" height="40" as="geometry" />
        </mxCell>
        <mxCell id="OhHFQgeIbm5aqrotHhMA-3" value="" style="ellipse;html=1;shape=endState;fillColor=#000000;strokeColor=#ff0000;strokeWidth=2;fontFamily=Helvetica;fontSize=12;fontColor=default;" vertex="1" parent="OhHFQgeIbm5aqrotHhMA-1">
          <mxGeometry x="860" y="70" width="30" height="30" as="geometry" />
        </mxCell>
        <mxCell id="OhHFQgeIbm5aqrotHhMA-4" value="ProfileController" style="swimlane;horizontal=0;whiteSpace=wrap;html=1;" vertex="1" parent="1">
          <mxGeometry x="40" y="300" width="910" height="150" as="geometry" />
        </mxCell>
        <mxCell id="OhHFQgeIbm5aqrotHhMA-5" value="Display User List" style="rounded=1;whiteSpace=wrap;html=1;strokeWidth=2;fontFamily=Helvetica;fontSize=12;" vertex="1" parent="OhHFQgeIbm5aqrotHhMA-4">
          <mxGeometry x="770" y="40" width="120" height="60" as="geometry" />
        </mxCell>
        <mxCell id="OhHFQgeIbm5aqrotHhMA-6" style="edgeStyle=orthogonalEdgeStyle;rounded=0;orthogonalLoop=1;jettySize=auto;html=1;dashed=1;" edge="1" parent="OhHFQgeIbm5aqrotHhMA-4" source="OhHFQgeIbm5aqrotHhMA-7" target="OhHFQgeIbm5aqrotHhMA-8">
          <mxGeometry relative="1" as="geometry" />
        </mxCell>
        <mxCell id="OhHFQgeIbm5aqrotHhMA-7" value="Display User List" style="rounded=1;whiteSpace=wrap;html=1;strokeWidth=2;fontFamily=Helvetica;fontSize=12;" vertex="1" parent="OhHFQgeIbm5aqrotHhMA-4">
          <mxGeometry x="50" y="20" width="120" height="60" as="geometry" />
        </mxCell>
        <mxCell id="OhHFQgeIbm5aqrotHhMA-8" value="Send Request " style="rounded=1;whiteSpace=wrap;html=1;strokeWidth=2;fontFamily=Helvetica;fontSize=12;" vertex="1" parent="OhHFQgeIbm5aqrotHhMA-4">
          <mxGeometry x="280" y="20" width="120" height="60" as="geometry" />
        </mxCell>
        <mxCell id="OhHFQgeIbm5aqrotHhMA-9" value="UserController" style="swimlane;horizontal=0;whiteSpace=wrap;html=1;" vertex="1" parent="1">
          <mxGeometry x="40" y="460" width="910" height="200" as="geometry" />
        </mxCell>
        <mxCell id="OhHFQgeIbm5aqrotHhMA-11" style="edgeStyle=orthogonalEdgeStyle;rounded=0;orthogonalLoop=1;jettySize=auto;html=1;entryX=0;entryY=0.5;entryDx=0;entryDy=0;dashed=1;" edge="1" parent="OhHFQgeIbm5aqrotHhMA-9" source="OhHFQgeIbm5aqrotHhMA-12" target="OhHFQgeIbm5aqrotHhMA-19">
          <mxGeometry relative="1" as="geometry">
            <mxPoint x="590" y="65" as="targetPoint" />
            <Array as="points" />
          </mxGeometry>
        </mxCell>
        <mxCell id="OhHFQgeIbm5aqrotHhMA-12" value="Query User Information&amp;nbsp;" style="rounded=1;whiteSpace=wrap;html=1;strokeWidth=2;fontFamily=Helvetica;fontSize=12;" vertex="1" parent="OhHFQgeIbm5aqrotHhMA-9">
          <mxGeometry x="140" y="60" width="120" height="60" as="geometry" />
        </mxCell>
        <mxCell id="OhHFQgeIbm5aqrotHhMA-19" value="Send back User List" style="rounded=1;whiteSpace=wrap;html=1;strokeWidth=2;fontFamily=Helvetica;fontSize=12;" vertex="1" parent="OhHFQgeIbm5aqrotHhMA-9">
          <mxGeometry x="590" y="60" width="120" height="60" as="geometry" />
        </mxCell>
        <mxCell id="OhHFQgeIbm5aqrotHhMA-13" style="edgeStyle=orthogonalEdgeStyle;rounded=0;orthogonalLoop=1;jettySize=auto;html=1;entryX=0.5;entryY=1;entryDx=0;entryDy=0;dashed=1;strokeWidth=1;fontFamily=Helvetica;fontSize=12;fontColor=default;" edge="1" parent="1" source="OhHFQgeIbm5aqrotHhMA-5" target="OhHFQgeIbm5aqrotHhMA-3">
          <mxGeometry relative="1" as="geometry" />
        </mxCell>
        <mxCell id="OhHFQgeIbm5aqrotHhMA-14" style="edgeStyle=orthogonalEdgeStyle;rounded=0;orthogonalLoop=1;jettySize=auto;html=1;entryX=0.5;entryY=0;entryDx=0;entryDy=0;dashed=1;strokeWidth=1;fontFamily=Helvetica;fontSize=12;fontColor=default;" edge="1" parent="1" source="OhHFQgeIbm5aqrotHhMA-2" target="OhHFQgeIbm5aqrotHhMA-7">
          <mxGeometry relative="1" as="geometry" />
        </mxCell>
        <mxCell id="OhHFQgeIbm5aqrotHhMA-15" value="List User" style="text;html=1;strokeColor=none;fillColor=none;align=center;verticalAlign=middle;whiteSpace=wrap;rounded=0;fontSize=19;" vertex="1" parent="1">
          <mxGeometry x="460" y="40" width="180" height="30" as="geometry" />
        </mxCell>
        <mxCell id="OhHFQgeIbm5aqrotHhMA-16" style="edgeStyle=orthogonalEdgeStyle;rounded=0;orthogonalLoop=1;jettySize=auto;html=1;dashed=1;" edge="1" parent="1" source="OhHFQgeIbm5aqrotHhMA-8" target="OhHFQgeIbm5aqrotHhMA-12">
          <mxGeometry relative="1" as="geometry">
            <Array as="points">
              <mxPoint x="380" y="410" />
              <mxPoint x="240" y="410" />
            </Array>
          </mxGeometry>
        </mxCell>
        <mxCell id="OhHFQgeIbm5aqrotHhMA-17" style="edgeStyle=orthogonalEdgeStyle;rounded=0;orthogonalLoop=1;jettySize=auto;html=1;entryX=0.36;entryY=1.053;entryDx=0;entryDy=0;entryPerimeter=0;dashed=1;" edge="1" parent="1" target="OhHFQgeIbm5aqrotHhMA-5">
          <mxGeometry relative="1" as="geometry">
            <mxPoint x="750" y="540" as="sourcePoint" />
          </mxGeometry>
        </mxCell>
      </root>
    </mxGraphModel>
  </diagram>
</mxfile>
